<svg id="visual" viewBox="0 0 960 540" width="960" height="540" xmlns="http://www.w3.org/2000/svg" xmlns:xlink="http://www.w3.org/1999/xlink" version="1.1"><rect x="0" y="0" width="960" height="540" fill="#000"></rect><path d="M678 540L671.5 531C665 522 652 504 647.7 486C643.3 468 647.7 450 648.2 432C648.7 414 645.3 396 651.7 378C658 360 674 342 678.2 324C682.3 306 674.7 288 672.7 270C670.7 252 674.3 234 670.7 216C667 198 656 180 654.7 162C653.3 144 661.7 126 665.2 108C668.7 90 667.3 72 670.7 54C674 36 682 18 686 9L690 0L960 0L960 9C960 18 960 36 960 54C960 72 960 90 960 108C960 126 960 144 960 162C960 180 960 198 960 216C960 234 960 252 960 270C960 288 960 306 960 324C960 342 960 360 960 378C960 396 960 414 960 432C960 450 960 468 960 486C960 504 960 522 960 531L960 540Z" fill="#e67f45"></path><path d="M700 540L711 531C722 522 744 504 747.5 486C751 468 736 450 726.3 432C716.7 414 712.3 396 717.7 378C723 360 738 342 744.5 324C751 306 749 288 750.2 270C751.3 252 755.7 234 759 216C762.3 198 764.7 180 763.5 162C762.3 144 757.7 126 751.3 108C745 90 737 72 734.3 54C731.7 36 734.3 18 735.7 9L737 0L960 0L960 9C960 18 960 36 960 54C960 72 960 90 960 108C960 126 960 144 960 162C960 180 960 198 960 216C960 234 960 252 960 270C960 288 960 306 960 324C960 342 960 360 960 378C960 396 960 414 960 432C960 450 960 468 960 486C960 504 960 522 960 531L960 540Z" fill="#dd6928"></path><path d="M790 540L791.7 531C793.3 522 796.7 504 791.7 486C786.7 468 773.3 450 776.2 432C779 414 798 396 800 378C802 360 787 342 785.3 324C783.7 306 795.3 288 792.8 270C790.3 252 773.7 234 767 216C760.3 198 763.7 180 770 162C776.3 144 785.7 126 793 108C800.3 90 805.7 72 802.8 54C800 36 789 18 783.5 9L778 0L960 0L960 9C960 18 960 36 960 54C960 72 960 90 960 108C960 126 960 144 960 162C960 180 960 198 960 216C960 234 960 252 960 270C960 288 960 306 960 324C960 342 960 360 960 378C960 396 960 414 960 432C960 450 960 468 960 486C960 504 960 522 960 531L960 540Z" fill="#d35100"></path><path d="M813 540L817.3 531C821.7 522 830.3 504 833 486C835.7 468 832.3 450 829.2 432C826 414 823 396 828 378C833 360 846 342 852.7 324C859.3 306 859.7 288 856.8 270C854 252 848 234 846.5 216C845 198 848 180 852 162C856 144 861 126 859.5 108C858 90 850 72 846.8 54C843.7 36 845.3 18 846.2 9L847 0L960 0L960 9C960 18 960 36 960 54C960 72 960 90 960 108C960 126 960 144 960 162C960 180 960 198 960 216C960 234 960 252 960 270C960 288 960 306 960 324C960 342 960 360 960 378C960 396 960 414 960 432C960 450 960 468 960 486C960 504 960 522 960 531L960 540Z" fill="#b74606"></path><path d="M911 540L907.5 531C904 522 897 504 892.5 486C888 468 886 450 886.5 432C887 414 890 396 889.7 378C889.3 360 885.7 342 883.8 324C882 306 882 288 888.3 270C894.7 252 907.3 234 909.5 216C911.7 198 903.3 180 903.2 162C903 144 911 126 914.7 108C918.3 90 917.7 72 915.5 54C913.3 36 909.7 18 907.8 9L906 0L960 0L960 9C960 18 960 36 960 54C960 72 960 90 960 108C960 126 960 144 960 162C960 180 960 198 960 216C960 234 960 252 960 270C960 288 960 306 960 324C960 342 960 360 960 378C960 396 960 414 960 432C960 450 960 468 960 486C960 504 960 522 960 531L960 540Z" fill="#9b3b09"></path></svg>